G04 Layer_Color=8388736*
%FSLAX25Y25*%
%MOIN*%
G70*
G01*
G75*
G04:AMPARAMS|DCode=48|XSize=94.49mil|YSize=94.49mil|CornerRadius=25.59mil|HoleSize=0mil|Usage=FLASHONLY|Rotation=90.000|XOffset=0mil|YOffset=0mil|HoleType=Round|Shape=RoundedRectangle|*
%AMROUNDEDRECTD48*
21,1,0.09449,0.04331,0,0,90.0*
21,1,0.04331,0.09449,0,0,90.0*
1,1,0.05118,0.02165,0.02165*
1,1,0.05118,0.02165,-0.02165*
1,1,0.05118,-0.02165,-0.02165*
1,1,0.05118,-0.02165,0.02165*
%
%ADD48ROUNDEDRECTD48*%
%ADD49O,0.07874X0.07087*%
G04:AMPARAMS|DCode=50|XSize=70.87mil|YSize=82.68mil|CornerRadius=19.68mil|HoleSize=0mil|Usage=FLASHONLY|Rotation=270.000|XOffset=0mil|YOffset=0mil|HoleType=Round|Shape=RoundedRectangle|*
%AMROUNDEDRECTD50*
21,1,0.07087,0.04331,0,0,270.0*
21,1,0.03150,0.08268,0,0,270.0*
1,1,0.03937,-0.02165,-0.01575*
1,1,0.03937,-0.02165,0.01575*
1,1,0.03937,0.02165,0.01575*
1,1,0.03937,0.02165,-0.01575*
%
%ADD50ROUNDEDRECTD50*%
%ADD51R,0.06693X0.06693*%
%ADD52O,0.08661X0.07087*%
%ADD53O,0.06693X0.07087*%
%ADD54C,0.12598*%
G04:AMPARAMS|DCode=55|XSize=125.98mil|YSize=125.98mil|CornerRadius=33.47mil|HoleSize=0mil|Usage=FLASHONLY|Rotation=0.000|XOffset=0mil|YOffset=0mil|HoleType=Round|Shape=RoundedRectangle|*
%AMROUNDEDRECTD55*
21,1,0.12598,0.05905,0,0,0.0*
21,1,0.05905,0.12598,0,0,0.0*
1,1,0.06693,0.02953,-0.02953*
1,1,0.06693,-0.02953,-0.02953*
1,1,0.06693,-0.02953,0.02953*
1,1,0.06693,0.02953,0.02953*
%
%ADD55ROUNDEDRECTD55*%
%ADD56C,0.22441*%
%ADD57C,0.08661*%
%ADD58C,0.09055*%
%ADD59C,0.06693*%
%ADD60O,0.07480X0.09449*%
%ADD61C,0.06693*%
G04:AMPARAMS|DCode=62|XSize=70.87mil|YSize=70.87mil|CornerRadius=19.68mil|HoleSize=0mil|Usage=FLASHONLY|Rotation=315.000|XOffset=0mil|YOffset=0mil|HoleType=Round|Shape=RoundedRectangle|*
%AMROUNDEDRECTD62*
21,1,0.07087,0.03150,0,0,315.0*
21,1,0.03150,0.07087,0,0,315.0*
1,1,0.03937,0.00000,-0.02227*
1,1,0.03937,-0.02227,0.00000*
1,1,0.03937,0.00000,0.02227*
1,1,0.03937,0.02227,0.00000*
%
%ADD62ROUNDEDRECTD62*%
%ADD63O,0.08661X0.09842*%
G04:AMPARAMS|DCode=64|XSize=86.61mil|YSize=86.61mil|CornerRadius=23.62mil|HoleSize=0mil|Usage=FLASHONLY|Rotation=0.000|XOffset=0mil|YOffset=0mil|HoleType=Round|Shape=RoundedRectangle|*
%AMROUNDEDRECTD64*
21,1,0.08661,0.03937,0,0,0.0*
21,1,0.03937,0.08661,0,0,0.0*
1,1,0.04724,0.01968,-0.01968*
1,1,0.04724,-0.01968,-0.01968*
1,1,0.04724,-0.01968,0.01968*
1,1,0.04724,0.01968,0.01968*
%
%ADD64ROUNDEDRECTD64*%
G04:AMPARAMS|DCode=65|XSize=86.61mil|YSize=94.49mil|CornerRadius=23.62mil|HoleSize=0mil|Usage=FLASHONLY|Rotation=180.000|XOffset=0mil|YOffset=0mil|HoleType=Round|Shape=RoundedRectangle|*
%AMROUNDEDRECTD65*
21,1,0.08661,0.04724,0,0,180.0*
21,1,0.03937,0.09449,0,0,180.0*
1,1,0.04724,-0.01968,0.02362*
1,1,0.04724,0.01968,0.02362*
1,1,0.04724,0.01968,-0.02362*
1,1,0.04724,-0.01968,-0.02362*
%
%ADD65ROUNDEDRECTD65*%
%ADD66O,0.07874X0.07087*%
%ADD67C,0.03937*%
D48*
X386000Y-987000D02*
D03*
D49*
X587000Y-960000D02*
D03*
X577000D02*
D03*
X587000Y-950000D02*
D03*
X577000D02*
D03*
X587000Y-940000D02*
D03*
X577000D02*
D03*
X587000Y-800000D02*
D03*
X577000Y-810000D02*
D03*
X587000D02*
D03*
Y-830000D02*
D03*
X577000D02*
D03*
X587000Y-820000D02*
D03*
X577000D02*
D03*
Y-840000D02*
D03*
X587000D02*
D03*
X577000Y-850000D02*
D03*
X587000D02*
D03*
X577000Y-860000D02*
D03*
X587000D02*
D03*
X577000Y-870000D02*
D03*
X587000D02*
D03*
X577000Y-880000D02*
D03*
X587000D02*
D03*
X577000Y-890000D02*
D03*
X587000D02*
D03*
X577000Y-900000D02*
D03*
X587000D02*
D03*
X577000Y-910000D02*
D03*
X587000D02*
D03*
X577000Y-920000D02*
D03*
X587000D02*
D03*
X577000Y-930000D02*
D03*
X587000D02*
D03*
D50*
X577000Y-800000D02*
D03*
D51*
X50000Y-130000D02*
D03*
Y-230000D02*
D03*
X360000Y-750000D02*
D03*
X440000Y-870000D02*
D03*
X300000Y-490000D02*
D03*
X520000Y-680000D02*
D03*
X300000Y-30000D02*
D03*
X150000Y-670000D02*
D03*
Y-580000D02*
D03*
Y-30000D02*
D03*
Y-390000D02*
D03*
X50000Y-30000D02*
D03*
X460000Y-720000D02*
D03*
X50000Y-930000D02*
D03*
Y-830000D02*
D03*
Y-730000D02*
D03*
Y-630000D02*
D03*
Y-530000D02*
D03*
Y-430000D02*
D03*
Y-330000D02*
D03*
X520000Y-450000D02*
D03*
X300000Y-790000D02*
D03*
Y-260000D02*
D03*
X150000Y-490000D02*
D03*
Y-300000D02*
D03*
Y-120000D02*
D03*
Y-210000D02*
D03*
X245000Y-485000D02*
D03*
X180000Y-840000D02*
D03*
D52*
X50000Y-140000D02*
D03*
Y-150000D02*
D03*
Y-160000D02*
D03*
Y-170000D02*
D03*
Y-180000D02*
D03*
Y-190000D02*
D03*
Y-200000D02*
D03*
X80000Y-130000D02*
D03*
Y-140000D02*
D03*
Y-150000D02*
D03*
Y-160000D02*
D03*
Y-170000D02*
D03*
Y-180000D02*
D03*
Y-190000D02*
D03*
Y-200000D02*
D03*
X50000Y-240000D02*
D03*
Y-250000D02*
D03*
Y-260000D02*
D03*
Y-270000D02*
D03*
Y-280000D02*
D03*
Y-290000D02*
D03*
Y-300000D02*
D03*
X80000Y-230000D02*
D03*
Y-240000D02*
D03*
Y-250000D02*
D03*
X360000Y-740000D02*
D03*
Y-730000D02*
D03*
Y-720000D02*
D03*
Y-710000D02*
D03*
Y-700000D02*
D03*
Y-690000D02*
D03*
Y-680000D02*
D03*
Y-670000D02*
D03*
Y-660000D02*
D03*
Y-650000D02*
D03*
Y-640000D02*
D03*
X300000Y-750000D02*
D03*
Y-740000D02*
D03*
Y-730000D02*
D03*
Y-720000D02*
D03*
Y-710000D02*
D03*
Y-700000D02*
D03*
Y-690000D02*
D03*
Y-680000D02*
D03*
Y-660000D02*
D03*
Y-650000D02*
D03*
Y-640000D02*
D03*
X440000Y-880000D02*
D03*
Y-890000D02*
D03*
Y-900000D02*
D03*
Y-910000D02*
D03*
Y-920000D02*
D03*
Y-930000D02*
D03*
Y-940000D02*
D03*
Y-950000D02*
D03*
Y-960000D02*
D03*
Y-970000D02*
D03*
Y-980000D02*
D03*
X500000Y-870000D02*
D03*
Y-880000D02*
D03*
Y-890000D02*
D03*
Y-900000D02*
D03*
Y-910000D02*
D03*
Y-920000D02*
D03*
Y-930000D02*
D03*
Y-940000D02*
D03*
Y-950000D02*
D03*
Y-960000D02*
D03*
Y-970000D02*
D03*
Y-980000D02*
D03*
X360000Y-600000D02*
D03*
Y-590000D02*
D03*
Y-570000D02*
D03*
Y-560000D02*
D03*
Y-550000D02*
D03*
Y-540000D02*
D03*
Y-530000D02*
D03*
Y-520000D02*
D03*
Y-510000D02*
D03*
Y-500000D02*
D03*
Y-490000D02*
D03*
X300000Y-600000D02*
D03*
Y-590000D02*
D03*
Y-580000D02*
D03*
Y-570000D02*
D03*
Y-560000D02*
D03*
Y-550000D02*
D03*
Y-540000D02*
D03*
Y-530000D02*
D03*
Y-520000D02*
D03*
Y-510000D02*
D03*
Y-500000D02*
D03*
X460000Y-560000D02*
D03*
Y-550000D02*
D03*
Y-540000D02*
D03*
Y-530000D02*
D03*
Y-520000D02*
D03*
Y-510000D02*
D03*
Y-500000D02*
D03*
Y-490000D02*
D03*
X520000Y-670000D02*
D03*
Y-660000D02*
D03*
Y-650000D02*
D03*
Y-640000D02*
D03*
Y-630000D02*
D03*
Y-620000D02*
D03*
Y-610000D02*
D03*
Y-600000D02*
D03*
Y-590000D02*
D03*
Y-490000D02*
D03*
Y-500000D02*
D03*
Y-510000D02*
D03*
Y-520000D02*
D03*
Y-530000D02*
D03*
Y-540000D02*
D03*
Y-550000D02*
D03*
Y-560000D02*
D03*
Y-570000D02*
D03*
Y-580000D02*
D03*
X460000Y-570000D02*
D03*
Y-580000D02*
D03*
Y-590000D02*
D03*
Y-600000D02*
D03*
Y-610000D02*
D03*
Y-620000D02*
D03*
Y-630000D02*
D03*
Y-640000D02*
D03*
Y-650000D02*
D03*
Y-660000D02*
D03*
Y-670000D02*
D03*
Y-680000D02*
D03*
X360000Y-150000D02*
D03*
Y-160000D02*
D03*
Y-170000D02*
D03*
Y-180000D02*
D03*
Y-190000D02*
D03*
Y-200000D02*
D03*
Y-210000D02*
D03*
Y-220000D02*
D03*
X300000Y-40000D02*
D03*
Y-50000D02*
D03*
Y-60000D02*
D03*
Y-70000D02*
D03*
Y-80000D02*
D03*
Y-90000D02*
D03*
Y-100000D02*
D03*
Y-110000D02*
D03*
Y-120000D02*
D03*
Y-220000D02*
D03*
Y-210000D02*
D03*
Y-200000D02*
D03*
Y-190000D02*
D03*
Y-180000D02*
D03*
Y-170000D02*
D03*
Y-160000D02*
D03*
Y-150000D02*
D03*
Y-140000D02*
D03*
Y-130000D02*
D03*
X360000Y-140000D02*
D03*
Y-130000D02*
D03*
Y-120000D02*
D03*
Y-110000D02*
D03*
Y-100000D02*
D03*
Y-90000D02*
D03*
Y-80000D02*
D03*
Y-70000D02*
D03*
Y-60000D02*
D03*
Y-50000D02*
D03*
Y-40000D02*
D03*
Y-30000D02*
D03*
X150000Y-680000D02*
D03*
Y-690000D02*
D03*
Y-710000D02*
D03*
Y-720000D02*
D03*
Y-730000D02*
D03*
X180000Y-670000D02*
D03*
Y-680000D02*
D03*
Y-690000D02*
D03*
Y-700000D02*
D03*
Y-710000D02*
D03*
Y-720000D02*
D03*
Y-730000D02*
D03*
Y-640000D02*
D03*
Y-630000D02*
D03*
Y-620000D02*
D03*
Y-610000D02*
D03*
Y-600000D02*
D03*
Y-590000D02*
D03*
Y-580000D02*
D03*
X150000Y-640000D02*
D03*
Y-630000D02*
D03*
Y-620000D02*
D03*
Y-610000D02*
D03*
Y-600000D02*
D03*
Y-590000D02*
D03*
X180000Y-90000D02*
D03*
Y-80000D02*
D03*
Y-70000D02*
D03*
Y-60000D02*
D03*
Y-50000D02*
D03*
Y-40000D02*
D03*
Y-30000D02*
D03*
X150000Y-90000D02*
D03*
Y-80000D02*
D03*
Y-70000D02*
D03*
Y-60000D02*
D03*
Y-50000D02*
D03*
Y-40000D02*
D03*
Y-400000D02*
D03*
Y-410000D02*
D03*
Y-420000D02*
D03*
Y-430000D02*
D03*
Y-440000D02*
D03*
Y-450000D02*
D03*
Y-460000D02*
D03*
X180000Y-400000D02*
D03*
Y-410000D02*
D03*
Y-420000D02*
D03*
Y-430000D02*
D03*
Y-440000D02*
D03*
Y-450000D02*
D03*
Y-460000D02*
D03*
X50000Y-40000D02*
D03*
Y-50000D02*
D03*
Y-60000D02*
D03*
Y-70000D02*
D03*
Y-80000D02*
D03*
Y-90000D02*
D03*
Y-100000D02*
D03*
X80000Y-30000D02*
D03*
Y-40000D02*
D03*
Y-50000D02*
D03*
Y-60000D02*
D03*
Y-70000D02*
D03*
Y-80000D02*
D03*
Y-90000D02*
D03*
Y-100000D02*
D03*
X520000Y-830000D02*
D03*
Y-820000D02*
D03*
Y-810000D02*
D03*
Y-800000D02*
D03*
Y-790000D02*
D03*
Y-780000D02*
D03*
Y-770000D02*
D03*
Y-760000D02*
D03*
Y-750000D02*
D03*
Y-740000D02*
D03*
Y-730000D02*
D03*
Y-720000D02*
D03*
X460000Y-830000D02*
D03*
Y-820000D02*
D03*
Y-810000D02*
D03*
Y-800000D02*
D03*
Y-790000D02*
D03*
Y-780000D02*
D03*
Y-770000D02*
D03*
Y-760000D02*
D03*
Y-750000D02*
D03*
Y-740000D02*
D03*
Y-730000D02*
D03*
X50000Y-940000D02*
D03*
Y-950000D02*
D03*
Y-960000D02*
D03*
Y-970000D02*
D03*
Y-980000D02*
D03*
Y-990000D02*
D03*
Y-1000000D02*
D03*
X80000Y-930000D02*
D03*
Y-940000D02*
D03*
Y-950000D02*
D03*
Y-960000D02*
D03*
Y-970000D02*
D03*
Y-980000D02*
D03*
Y-990000D02*
D03*
Y-1000000D02*
D03*
X50000Y-840000D02*
D03*
Y-850000D02*
D03*
Y-860000D02*
D03*
Y-870000D02*
D03*
Y-880000D02*
D03*
Y-890000D02*
D03*
Y-900000D02*
D03*
X80000Y-840000D02*
D03*
Y-850000D02*
D03*
Y-860000D02*
D03*
Y-870000D02*
D03*
Y-880000D02*
D03*
Y-890000D02*
D03*
Y-900000D02*
D03*
X50000Y-740000D02*
D03*
Y-750000D02*
D03*
Y-760000D02*
D03*
Y-770000D02*
D03*
Y-780000D02*
D03*
Y-790000D02*
D03*
Y-800000D02*
D03*
X80000Y-730000D02*
D03*
Y-740000D02*
D03*
Y-750000D02*
D03*
Y-760000D02*
D03*
Y-770000D02*
D03*
Y-780000D02*
D03*
Y-790000D02*
D03*
Y-800000D02*
D03*
X50000Y-640000D02*
D03*
Y-650000D02*
D03*
Y-660000D02*
D03*
Y-670000D02*
D03*
Y-680000D02*
D03*
Y-690000D02*
D03*
Y-700000D02*
D03*
X80000Y-630000D02*
D03*
Y-640000D02*
D03*
Y-650000D02*
D03*
Y-660000D02*
D03*
Y-670000D02*
D03*
Y-680000D02*
D03*
Y-690000D02*
D03*
Y-700000D02*
D03*
X50000Y-540000D02*
D03*
Y-550000D02*
D03*
Y-560000D02*
D03*
Y-570000D02*
D03*
Y-580000D02*
D03*
Y-590000D02*
D03*
Y-600000D02*
D03*
X80000Y-530000D02*
D03*
Y-540000D02*
D03*
Y-550000D02*
D03*
Y-560000D02*
D03*
Y-570000D02*
D03*
Y-580000D02*
D03*
Y-590000D02*
D03*
Y-600000D02*
D03*
X50000Y-440000D02*
D03*
Y-450000D02*
D03*
Y-460000D02*
D03*
Y-470000D02*
D03*
Y-480000D02*
D03*
Y-490000D02*
D03*
Y-500000D02*
D03*
X80000Y-430000D02*
D03*
Y-440000D02*
D03*
Y-450000D02*
D03*
Y-460000D02*
D03*
Y-470000D02*
D03*
Y-480000D02*
D03*
Y-490000D02*
D03*
Y-500000D02*
D03*
X50000Y-340000D02*
D03*
Y-350000D02*
D03*
Y-360000D02*
D03*
Y-370000D02*
D03*
Y-380000D02*
D03*
Y-390000D02*
D03*
Y-400000D02*
D03*
X80000Y-330000D02*
D03*
Y-340000D02*
D03*
Y-350000D02*
D03*
Y-360000D02*
D03*
Y-370000D02*
D03*
Y-380000D02*
D03*
Y-390000D02*
D03*
Y-400000D02*
D03*
X460000Y-330000D02*
D03*
Y-320000D02*
D03*
Y-310000D02*
D03*
Y-300000D02*
D03*
Y-290000D02*
D03*
Y-280000D02*
D03*
Y-270000D02*
D03*
Y-260000D02*
D03*
X520000Y-440000D02*
D03*
Y-430000D02*
D03*
Y-420000D02*
D03*
Y-410000D02*
D03*
Y-400000D02*
D03*
Y-390000D02*
D03*
Y-380000D02*
D03*
Y-370000D02*
D03*
Y-360000D02*
D03*
Y-260000D02*
D03*
Y-270000D02*
D03*
Y-280000D02*
D03*
Y-290000D02*
D03*
Y-300000D02*
D03*
Y-310000D02*
D03*
Y-320000D02*
D03*
Y-330000D02*
D03*
Y-340000D02*
D03*
Y-350000D02*
D03*
X460000Y-340000D02*
D03*
Y-350000D02*
D03*
Y-360000D02*
D03*
Y-370000D02*
D03*
Y-380000D02*
D03*
Y-390000D02*
D03*
Y-400000D02*
D03*
Y-410000D02*
D03*
Y-420000D02*
D03*
Y-430000D02*
D03*
Y-440000D02*
D03*
Y-450000D02*
D03*
X360000Y-910000D02*
D03*
Y-920000D02*
D03*
Y-930000D02*
D03*
Y-940000D02*
D03*
Y-950000D02*
D03*
Y-960000D02*
D03*
Y-970000D02*
D03*
Y-980000D02*
D03*
X300000Y-800000D02*
D03*
Y-810000D02*
D03*
Y-820000D02*
D03*
Y-830000D02*
D03*
Y-840000D02*
D03*
Y-850000D02*
D03*
Y-860000D02*
D03*
Y-870000D02*
D03*
Y-880000D02*
D03*
Y-980000D02*
D03*
Y-970000D02*
D03*
Y-960000D02*
D03*
Y-950000D02*
D03*
Y-940000D02*
D03*
Y-930000D02*
D03*
Y-920000D02*
D03*
Y-910000D02*
D03*
Y-900000D02*
D03*
Y-890000D02*
D03*
X360000Y-900000D02*
D03*
Y-890000D02*
D03*
Y-880000D02*
D03*
Y-870000D02*
D03*
Y-860000D02*
D03*
Y-850000D02*
D03*
Y-840000D02*
D03*
Y-830000D02*
D03*
Y-820000D02*
D03*
Y-810000D02*
D03*
Y-800000D02*
D03*
Y-790000D02*
D03*
Y-380000D02*
D03*
Y-390000D02*
D03*
Y-400000D02*
D03*
Y-410000D02*
D03*
Y-420000D02*
D03*
Y-430000D02*
D03*
Y-440000D02*
D03*
Y-450000D02*
D03*
X300000Y-270000D02*
D03*
Y-280000D02*
D03*
Y-290000D02*
D03*
Y-300000D02*
D03*
Y-310000D02*
D03*
Y-320000D02*
D03*
Y-330000D02*
D03*
Y-340000D02*
D03*
Y-350000D02*
D03*
Y-450000D02*
D03*
Y-440000D02*
D03*
Y-430000D02*
D03*
Y-420000D02*
D03*
Y-410000D02*
D03*
Y-400000D02*
D03*
Y-390000D02*
D03*
Y-380000D02*
D03*
Y-370000D02*
D03*
Y-360000D02*
D03*
X360000Y-370000D02*
D03*
Y-360000D02*
D03*
Y-350000D02*
D03*
Y-340000D02*
D03*
Y-330000D02*
D03*
Y-320000D02*
D03*
Y-310000D02*
D03*
Y-300000D02*
D03*
Y-290000D02*
D03*
Y-280000D02*
D03*
Y-270000D02*
D03*
Y-260000D02*
D03*
X150000Y-500000D02*
D03*
Y-510000D02*
D03*
Y-520000D02*
D03*
Y-530000D02*
D03*
Y-540000D02*
D03*
Y-550000D02*
D03*
X180000Y-490000D02*
D03*
Y-500000D02*
D03*
Y-510000D02*
D03*
Y-520000D02*
D03*
Y-530000D02*
D03*
Y-540000D02*
D03*
Y-550000D02*
D03*
X150000Y-310000D02*
D03*
Y-320000D02*
D03*
Y-330000D02*
D03*
Y-340000D02*
D03*
Y-350000D02*
D03*
Y-360000D02*
D03*
X180000Y-300000D02*
D03*
Y-310000D02*
D03*
Y-320000D02*
D03*
Y-330000D02*
D03*
Y-340000D02*
D03*
Y-350000D02*
D03*
X150000Y-130000D02*
D03*
Y-140000D02*
D03*
Y-150000D02*
D03*
Y-160000D02*
D03*
X180000Y-120000D02*
D03*
Y-130000D02*
D03*
Y-140000D02*
D03*
Y-150000D02*
D03*
Y-160000D02*
D03*
Y-170000D02*
D03*
Y-180000D02*
D03*
X150000Y-220000D02*
D03*
Y-230000D02*
D03*
Y-240000D02*
D03*
Y-250000D02*
D03*
Y-260000D02*
D03*
Y-270000D02*
D03*
X180000Y-210000D02*
D03*
Y-220000D02*
D03*
Y-230000D02*
D03*
Y-240000D02*
D03*
Y-250000D02*
D03*
Y-260000D02*
D03*
Y-270000D02*
D03*
X245000Y-535000D02*
D03*
Y-545000D02*
D03*
Y-555000D02*
D03*
X275000Y-505000D02*
D03*
Y-515000D02*
D03*
Y-525000D02*
D03*
Y-535000D02*
D03*
Y-545000D02*
D03*
Y-555000D02*
D03*
D53*
X80000Y-260000D02*
D03*
Y-270000D02*
D03*
Y-280000D02*
D03*
Y-290000D02*
D03*
Y-300000D02*
D03*
D54*
X550000Y-80000D02*
D03*
Y-110000D02*
D03*
X451551Y-35000D02*
D03*
X440000Y-59000D02*
D03*
D55*
X521000Y-35000D02*
D03*
X520000Y-59000D02*
D03*
D56*
X606260Y-271339D02*
D03*
Y-743779D02*
D03*
X15748Y-1007874D02*
D03*
X614173D02*
D03*
X15748Y-15748D02*
D03*
X614173D02*
D03*
D57*
X582638Y-308583D02*
D03*
Y-322362D02*
D03*
Y-336142D02*
D03*
Y-349921D02*
D03*
Y-363701D02*
D03*
Y-377480D02*
D03*
Y-391260D02*
D03*
Y-405039D02*
D03*
Y-418819D02*
D03*
Y-432598D02*
D03*
Y-446378D02*
D03*
Y-460157D02*
D03*
Y-473937D02*
D03*
Y-487716D02*
D03*
Y-501496D02*
D03*
Y-515276D02*
D03*
Y-529055D02*
D03*
Y-542835D02*
D03*
Y-556614D02*
D03*
Y-570394D02*
D03*
Y-584173D02*
D03*
Y-597953D02*
D03*
Y-611732D02*
D03*
Y-625512D02*
D03*
Y-639291D02*
D03*
Y-653071D02*
D03*
Y-666850D02*
D03*
Y-680630D02*
D03*
Y-694409D02*
D03*
Y-708189D02*
D03*
X594449Y-301693D02*
D03*
Y-315472D02*
D03*
Y-329252D02*
D03*
Y-343031D02*
D03*
Y-356811D02*
D03*
Y-370591D02*
D03*
Y-384370D02*
D03*
Y-398150D02*
D03*
Y-411929D02*
D03*
Y-425709D02*
D03*
Y-439488D02*
D03*
Y-453268D02*
D03*
Y-467047D02*
D03*
Y-480827D02*
D03*
Y-494606D02*
D03*
Y-508386D02*
D03*
Y-522165D02*
D03*
Y-535945D02*
D03*
Y-549724D02*
D03*
Y-563504D02*
D03*
Y-577283D02*
D03*
Y-591063D02*
D03*
Y-604842D02*
D03*
Y-618622D02*
D03*
Y-632402D02*
D03*
Y-646181D02*
D03*
Y-659961D02*
D03*
Y-673740D02*
D03*
Y-687520D02*
D03*
Y-701299D02*
D03*
Y-715079D02*
D03*
X127000Y-210000D02*
D03*
X200000Y-977000D02*
D03*
X275000Y-457000D02*
D03*
X237000Y-265000D02*
D03*
Y-225000D02*
D03*
X409000Y-1010000D02*
D03*
X24000Y-979000D02*
D03*
X88000Y-607000D02*
D03*
X610000Y-838000D02*
D03*
X538000Y-130000D02*
D03*
X30000Y-300000D02*
D03*
Y-400000D02*
D03*
Y-500000D02*
D03*
Y-600000D02*
D03*
Y-700000D02*
D03*
Y-800000D02*
D03*
Y-900000D02*
D03*
X507000Y-244000D02*
D03*
X449000Y-360000D02*
D03*
X530000Y-244000D02*
D03*
X590000Y-765000D02*
D03*
X483000Y-310000D02*
D03*
X494000Y-825000D02*
D03*
X510000Y-695000D02*
D03*
X494000D02*
D03*
X70000Y-119000D02*
D03*
X88000Y-855000D02*
D03*
Y-655000D02*
D03*
X141000Y-225000D02*
D03*
Y-325000D02*
D03*
Y-345000D02*
D03*
X367000Y-457000D02*
D03*
X291000Y-781000D02*
D03*
X365000Y-246000D02*
D03*
X538000Y-140000D02*
D03*
X502000Y-695000D02*
D03*
X369000Y-875000D02*
D03*
X30000Y-410000D02*
D03*
X189000Y-658000D02*
D03*
X151000D02*
D03*
D58*
X444000Y-819000D02*
D03*
X404000D02*
D03*
X440000Y-235000D02*
D03*
X460000D02*
D03*
X520000Y-80000D02*
D03*
X500000D02*
D03*
X170000Y-864000D02*
D03*
X150000D02*
D03*
X213000Y-950000D02*
D03*
X173000D02*
D03*
X155000Y-925000D02*
D03*
X195000D02*
D03*
X223000Y-938000D02*
D03*
Y-898000D02*
D03*
X30000Y-315000D02*
D03*
X70000D02*
D03*
X185000Y-565000D02*
D03*
X145000D02*
D03*
X397000Y-606000D02*
D03*
Y-646000D02*
D03*
X536000Y-297000D02*
D03*
Y-337000D02*
D03*
X123000Y-298000D02*
D03*
Y-258000D02*
D03*
X172780Y-976142D02*
D03*
Y-993858D02*
D03*
X145220D02*
D03*
Y-976142D02*
D03*
X444000Y-800000D02*
D03*
X404000D02*
D03*
X235000Y-457000D02*
D03*
X98000Y-240000D02*
D03*
X138000D02*
D03*
X20000Y-160000D02*
D03*
Y-120000D02*
D03*
X127000Y-310000D02*
D03*
X87000D02*
D03*
X187000Y-477000D02*
D03*
X227000D02*
D03*
X130000Y-60000D02*
D03*
X90000D02*
D03*
X102000Y-115000D02*
D03*
Y-75000D02*
D03*
X32500Y-90000D02*
D03*
Y-130000D02*
D03*
X20000Y-60000D02*
D03*
Y-100000D02*
D03*
X99000Y-167000D02*
D03*
Y-207000D02*
D03*
X80000Y-215000D02*
D03*
X40000D02*
D03*
X19000Y-190000D02*
D03*
Y-230000D02*
D03*
X30000Y-167500D02*
D03*
Y-207500D02*
D03*
X444000Y-730000D02*
D03*
X404000D02*
D03*
X444000Y-788000D02*
D03*
X404000D02*
D03*
X444000Y-773000D02*
D03*
X404000D02*
D03*
X444000Y-757000D02*
D03*
X404000D02*
D03*
X444000Y-743000D02*
D03*
X404000D02*
D03*
X520000Y-199000D02*
D03*
X480000D02*
D03*
X440000Y-220000D02*
D03*
X480000D02*
D03*
X520000Y-235000D02*
D03*
X480000D02*
D03*
Y-180000D02*
D03*
X520000D02*
D03*
Y-159000D02*
D03*
X480000D02*
D03*
X520000Y-140000D02*
D03*
X480000D02*
D03*
X520000Y-100000D02*
D03*
X480000D02*
D03*
Y-120000D02*
D03*
X440000D02*
D03*
X480000Y-80000D02*
D03*
X440000D02*
D03*
Y-12000D02*
D03*
X480000D02*
D03*
X440000Y-23000D02*
D03*
X480000D02*
D03*
X521000Y-220000D02*
D03*
X501000D02*
D03*
X520000Y-120000D02*
D03*
X500000D02*
D03*
X460000Y-140000D02*
D03*
X440000D02*
D03*
X215000Y-865000D02*
D03*
Y-825000D02*
D03*
X209000Y-898000D02*
D03*
Y-938000D02*
D03*
X40000Y-815000D02*
D03*
X80000D02*
D03*
X40000Y-615000D02*
D03*
X80000D02*
D03*
X409000Y-970000D02*
D03*
X30000Y-915000D02*
D03*
X70000D02*
D03*
X148000Y-750000D02*
D03*
X188000D02*
D03*
X30000Y-715000D02*
D03*
X70000D02*
D03*
X30000Y-515000D02*
D03*
X70000D02*
D03*
X275000Y-750000D02*
D03*
Y-790000D02*
D03*
X620000Y-220000D02*
D03*
X610000D02*
D03*
X600000D02*
D03*
X590000D02*
D03*
X580000D02*
D03*
X570000D02*
D03*
Y-210000D02*
D03*
X580000D02*
D03*
X590000D02*
D03*
X600000D02*
D03*
X610000D02*
D03*
X620000D02*
D03*
Y-200000D02*
D03*
X610000D02*
D03*
X600000D02*
D03*
X590000D02*
D03*
X580000D02*
D03*
X570000D02*
D03*
Y-190000D02*
D03*
X580000D02*
D03*
X590000D02*
D03*
X600000D02*
D03*
X610000D02*
D03*
X620000D02*
D03*
X580000Y-180000D02*
D03*
Y-170000D02*
D03*
Y-160000D02*
D03*
Y-150000D02*
D03*
Y-140000D02*
D03*
Y-130000D02*
D03*
X590000D02*
D03*
Y-140000D02*
D03*
X600000Y-130000D02*
D03*
X610000D02*
D03*
X620000D02*
D03*
Y-140000D02*
D03*
Y-150000D02*
D03*
Y-160000D02*
D03*
Y-170000D02*
D03*
Y-180000D02*
D03*
X610000D02*
D03*
X600000D02*
D03*
X590000D02*
D03*
Y-170000D02*
D03*
Y-160000D02*
D03*
Y-150000D02*
D03*
X600000D02*
D03*
Y-140000D02*
D03*
X610000D02*
D03*
Y-150000D02*
D03*
Y-160000D02*
D03*
Y-170000D02*
D03*
X600000D02*
D03*
Y-160000D02*
D03*
X620000Y-120000D02*
D03*
X610000D02*
D03*
X600000D02*
D03*
X590000D02*
D03*
X620000Y-110000D02*
D03*
X610000D02*
D03*
X600000D02*
D03*
X590000D02*
D03*
Y-100000D02*
D03*
X600000D02*
D03*
X610000D02*
D03*
X620000D02*
D03*
Y-90000D02*
D03*
X610000D02*
D03*
X600000D02*
D03*
X590000D02*
D03*
Y-80000D02*
D03*
X600000D02*
D03*
X610000D02*
D03*
X620000D02*
D03*
Y-70000D02*
D03*
X610000D02*
D03*
X600000D02*
D03*
X590000D02*
D03*
X600000Y-60000D02*
D03*
Y-50000D02*
D03*
Y-40000D02*
D03*
X610000D02*
D03*
Y-50000D02*
D03*
Y-60000D02*
D03*
X620000D02*
D03*
Y-50000D02*
D03*
Y-40000D02*
D03*
X570000Y-180000D02*
D03*
Y-170000D02*
D03*
Y-160000D02*
D03*
Y-150000D02*
D03*
Y-140000D02*
D03*
Y-130000D02*
D03*
X560000D02*
D03*
Y-140000D02*
D03*
Y-150000D02*
D03*
Y-160000D02*
D03*
Y-170000D02*
D03*
Y-180000D02*
D03*
Y-190000D02*
D03*
Y-200000D02*
D03*
Y-210000D02*
D03*
Y-220000D02*
D03*
X590000Y-60000D02*
D03*
Y-50000D02*
D03*
Y-40000D02*
D03*
X550000Y-210000D02*
D03*
Y-200000D02*
D03*
Y-190000D02*
D03*
Y-180000D02*
D03*
Y-170000D02*
D03*
Y-160000D02*
D03*
Y-150000D02*
D03*
Y-140000D02*
D03*
Y-130000D02*
D03*
Y-220000D02*
D03*
X560000Y-230000D02*
D03*
X570000D02*
D03*
X580000D02*
D03*
X590000D02*
D03*
X600000D02*
D03*
X610000D02*
D03*
X620000D02*
D03*
X570000Y-240000D02*
D03*
X580000D02*
D03*
X590000D02*
D03*
X600000D02*
D03*
X610000D02*
D03*
X620000D02*
D03*
D59*
X300000Y-670000D02*
D03*
X360000Y-580000D02*
D03*
X150000Y-700000D02*
D03*
X180000Y-390000D02*
D03*
Y-360000D02*
D03*
X150000Y-170000D02*
D03*
Y-180000D02*
D03*
X245000Y-495000D02*
D03*
Y-505000D02*
D03*
Y-515000D02*
D03*
Y-525000D02*
D03*
X275000Y-485000D02*
D03*
Y-495000D02*
D03*
X40000Y-365000D02*
D03*
X367000Y-705000D02*
D03*
D60*
X459685Y-100000D02*
D03*
X449842D02*
D03*
X440000D02*
D03*
D61*
X470000Y-180000D02*
D03*
X454252Y-164252D02*
D03*
X438504Y-180000D02*
D03*
X454252Y-195748D02*
D03*
X465387Y-168864D02*
D03*
X443116Y-191136D02*
D03*
X465387D02*
D03*
X180000Y-830000D02*
D03*
Y-820000D02*
D03*
Y-810000D02*
D03*
Y-800000D02*
D03*
Y-790000D02*
D03*
Y-780000D02*
D03*
Y-770000D02*
D03*
X150000Y-840000D02*
D03*
Y-830000D02*
D03*
Y-820000D02*
D03*
Y-810000D02*
D03*
Y-800000D02*
D03*
Y-790000D02*
D03*
Y-780000D02*
D03*
Y-770000D02*
D03*
D62*
X443116Y-168864D02*
D03*
D63*
X165000Y-900000D02*
D03*
X155000D02*
D03*
X550000Y-48000D02*
D03*
X540000D02*
D03*
X520000Y-987500D02*
D03*
X530000D02*
D03*
D64*
X210000Y-977000D02*
D03*
D65*
X560000Y-48000D02*
D03*
X540000Y-987500D02*
D03*
D66*
X80000Y-830000D02*
D03*
D67*
X442500Y-688000D02*
D03*
X434000Y-712000D02*
D03*
X430000Y-708000D02*
D03*
X395000Y-807000D02*
D03*
X389000Y-812000D02*
D03*
Y-826000D02*
D03*
X11000Y-932000D02*
D03*
X15000Y-927000D02*
D03*
X19000Y-960000D02*
D03*
X24000Y-955000D02*
D03*
X290000Y-474000D02*
D03*
X286000Y-469000D02*
D03*
X306000Y-479000D02*
D03*
X282000Y-464000D02*
D03*
X262000Y-860000D02*
D03*
X166000Y-494000D02*
D03*
X235000Y-467000D02*
D03*
X165000Y-20000D02*
D03*
X345000Y-769000D02*
D03*
X314000Y-335000D02*
D03*
X310000Y-345000D02*
D03*
X134000Y-80000D02*
D03*
X126000Y-150000D02*
D03*
X121000Y-165000D02*
D03*
X314000Y-545000D02*
D03*
X350000Y-555000D02*
D03*
X346000Y-535000D02*
D03*
X342000Y-515000D02*
D03*
X476000Y-610000D02*
D03*
X453000Y-925000D02*
D03*
X306000Y-665000D02*
D03*
X310000Y-655000D02*
D03*
X322000Y-650000D02*
D03*
X314000Y-645000D02*
D03*
X350000Y-685000D02*
D03*
X346000Y-735000D02*
D03*
X342000Y-745000D02*
D03*
X375850Y-24150D02*
D03*
X528000Y-405000D02*
D03*
X496000Y-550000D02*
D03*
X476000Y-600000D02*
D03*
X318000Y-575000D02*
D03*
X167000Y-815000D02*
D03*
X123000Y-75000D02*
D03*
X199000Y-15000D02*
D03*
X231000Y-19000D02*
D03*
X207000Y-80000D02*
D03*
X407000D02*
D03*
X423000Y-75000D02*
D03*
X427000Y-35000D02*
D03*
X211000Y-140000D02*
D03*
X215000Y-405000D02*
D03*
X219000Y-305000D02*
D03*
X215000Y-215000D02*
D03*
X203000Y-420000D02*
D03*
X207000Y-435000D02*
D03*
X211000Y-790000D02*
D03*
X487500Y-250000D02*
D03*
Y-290000D02*
D03*
X429000Y-840000D02*
D03*
X536000Y-395000D02*
D03*
X540000Y-392000D02*
D03*
X504000Y-385000D02*
D03*
X532000Y-415000D02*
D03*
X544000Y-585000D02*
D03*
X548000Y-575000D02*
D03*
X552000Y-480000D02*
D03*
X556000Y-476000D02*
D03*
X560000Y-384000D02*
D03*
X564000Y-468000D02*
D03*
X442000Y-472000D02*
D03*
X564000Y-484000D02*
D03*
X515000Y-850000D02*
D03*
X384000Y-845000D02*
D03*
X520000Y-855000D02*
D03*
X390000Y-845000D02*
D03*
Y-885000D02*
D03*
X515000Y-870000D02*
D03*
X520000Y-865000D02*
D03*
X334000Y-310000D02*
D03*
X326000Y-290000D02*
D03*
X330000Y-300000D02*
D03*
X160000Y-240000D02*
D03*
X158000Y-360000D02*
D03*
X169000Y-250000D02*
D03*
X100000Y-970000D02*
D03*
X322000Y-568000D02*
D03*
X157000Y-515000D02*
D03*
X209000Y-830000D02*
D03*
X396000Y-580000D02*
D03*
X318000Y-355000D02*
D03*
X199000Y-370000D02*
D03*
X334000Y-510000D02*
D03*
X330000Y-530000D02*
D03*
X326000Y-550000D02*
D03*
X334000Y-680000D02*
D03*
X330000Y-675000D02*
D03*
X326000Y-665000D02*
D03*
X310000Y-616000D02*
D03*
X306000Y-620000D02*
D03*
X314000Y-585000D02*
D03*
X322000Y-280000D02*
D03*
X354000Y-480000D02*
D03*
X342000Y-320000D02*
D03*
X195000Y-690000D02*
D03*
Y-550000D02*
D03*
X286000Y-120000D02*
D03*
Y-380000D02*
D03*
X215000Y-445000D02*
D03*
X219000Y-785000D02*
D03*
X195000Y-330000D02*
D03*
X199000Y-100000D02*
D03*
X203000Y-220000D02*
D03*
X199000Y-625000D02*
D03*
X203000Y-800000D02*
D03*
X207000Y-810000D02*
D03*
X215000Y-795000D02*
D03*
X170000Y-530000D02*
D03*
X115000Y-280000D02*
D03*
X110000Y-290000D02*
D03*
X95000Y-640000D02*
D03*
X115000Y-680000D02*
D03*
X105000Y-665000D02*
D03*
X100000Y-670000D02*
D03*
X110000Y-690000D02*
D03*
X95000Y-740000D02*
D03*
X120000Y-750000D02*
D03*
X105000Y-760000D02*
D03*
X100000Y-770000D02*
D03*
X115000Y-780000D02*
D03*
X110000Y-790000D02*
D03*
X414000Y-615000D02*
D03*
X434000Y-340000D02*
D03*
X430000Y-350000D02*
D03*
X426000Y-360000D02*
D03*
X422000Y-370000D02*
D03*
X418000Y-390000D02*
D03*
X414000Y-400000D02*
D03*
Y-385000D02*
D03*
X318000Y-320000D02*
D03*
X110000Y-390000D02*
D03*
X115000Y-380000D02*
D03*
X100000Y-370000D02*
D03*
X105000Y-360000D02*
D03*
X95000Y-340000D02*
D03*
X100000Y-270000D02*
D03*
X105000Y-260000D02*
D03*
X11000D02*
D03*
X24000Y-270000D02*
D03*
X19000Y-290000D02*
D03*
Y-390000D02*
D03*
X11000Y-460000D02*
D03*
X24000Y-471000D02*
D03*
X19000Y-490000D02*
D03*
X11000Y-560000D02*
D03*
X24094Y-569905D02*
D03*
X19000Y-590000D02*
D03*
X11000Y-660000D02*
D03*
X24094Y-670000D02*
D03*
X19000Y-690000D02*
D03*
Y-790000D02*
D03*
X24094Y-770905D02*
D03*
X11000Y-760000D02*
D03*
X19000Y-890000D02*
D03*
X24000Y-870000D02*
D03*
X11000Y-860000D02*
D03*
X119000Y-550000D02*
D03*
X110000Y-590000D02*
D03*
X115000Y-580000D02*
D03*
X100000Y-570000D02*
D03*
X105000Y-560000D02*
D03*
X95000Y-540000D02*
D03*
X115000Y-480000D02*
D03*
X100000Y-470000D02*
D03*
X105000Y-460000D02*
D03*
X95000Y-440000D02*
D03*
Y-840000D02*
D03*
X110000Y-990000D02*
D03*
X115000Y-980000D02*
D03*
X120000Y-970000D02*
D03*
X105000Y-960000D02*
D03*
X115000Y-880000D02*
D03*
X110000Y-890000D02*
D03*
X95000Y-940000D02*
D03*
X139000Y-35000D02*
D03*
X245000Y-230000D02*
D03*
Y-130000D02*
D03*
X410000Y-375000D02*
D03*
Y-410000D02*
D03*
Y-605000D02*
D03*
X223000Y-695000D02*
D03*
X143000Y-45000D02*
D03*
X399000Y-185000D02*
D03*
X403000Y-195000D02*
D03*
X199000Y-125000D02*
D03*
X195000Y-225000D02*
D03*
X203000Y-440000D02*
D03*
X372000Y-450000D02*
D03*
X219000Y-400000D02*
D03*
X376000Y-675000D02*
D03*
X191000Y-202000D02*
D03*
Y-293000D02*
D03*
X195000Y-281000D02*
D03*
X138000D02*
D03*
X380000Y-634000D02*
D03*
X282000Y-130000D02*
D03*
X278000Y-430000D02*
D03*
X274000Y-114000D02*
D03*
Y-410000D02*
D03*
X278000Y-40000D02*
D03*
Y-310000D02*
D03*
X407000Y-165000D02*
D03*
X395000Y-155000D02*
D03*
X346000Y-235000D02*
D03*
X231000Y-160000D02*
D03*
X219000Y-60000D02*
D03*
X270000Y-420000D02*
D03*
Y-293000D02*
D03*
X266000Y-100000D02*
D03*
Y-590000D02*
D03*
X270000Y-260000D02*
D03*
X129000Y-965000D02*
D03*
X134000Y-880000D02*
D03*
X124000Y-885000D02*
D03*
X113000Y-135000D02*
D03*
X130000Y-130000D02*
D03*
X117000Y-95000D02*
D03*
X170000Y-16000D02*
D03*
X254000Y-450000D02*
D03*
Y-630000D02*
D03*
X223000Y-30000D02*
D03*
X403000Y-90000D02*
D03*
X376000Y-260000D02*
D03*
X372000Y-85000D02*
D03*
X415000Y-65000D02*
D03*
X411000Y-60000D02*
D03*
X415000Y-50000D02*
D03*
X419000Y-40000D02*
D03*
X423000Y-30000D02*
D03*
X380000Y-600000D02*
D03*
X227000D02*
D03*
X223000Y-825000D02*
D03*
X227000Y-835000D02*
D03*
X376000Y-395000D02*
D03*
Y-270000D02*
D03*
Y-540000D02*
D03*
X258000Y-190000D02*
D03*
Y-830000D02*
D03*
X254000Y-175000D02*
D03*
Y-240000D02*
D03*
X342000D02*
D03*
X110000Y-490000D02*
D03*
X384000Y-325000D02*
D03*
X262000Y-345000D02*
D03*
X249000Y-160000D02*
D03*
X250000Y-840000D02*
D03*
X199000D02*
D03*
X195000Y-845000D02*
D03*
X170150Y-520000D02*
D03*
X388000D02*
D03*
Y-300000D02*
D03*
Y-405000D02*
D03*
X284000Y-710000D02*
D03*
X166000Y-472000D02*
D03*
X170000Y-455000D02*
D03*
X15000Y-850000D02*
D03*
Y-250000D02*
D03*
Y-450000D02*
D03*
Y-550000D02*
D03*
Y-650000D02*
D03*
Y-750000D02*
D03*
Y-350000D02*
D03*
X392000Y-560000D02*
D03*
Y-280000D02*
D03*
X338000Y-375000D02*
D03*
Y-355000D02*
D03*
X392000D02*
D03*
X150000Y-375000D02*
D03*
X64000D02*
D03*
X194000Y-150000D02*
D03*
X199000D02*
D03*
X194000Y-170000D02*
D03*
X231000D02*
D03*
X227000Y-455000D02*
D03*
X231000Y-415000D02*
D03*
X338000D02*
D03*
X396000Y-495000D02*
D03*
X402000Y-395000D02*
D03*
X396000Y-290000D02*
D03*
X384000Y-235000D02*
D03*
Y-175000D02*
D03*
X270000Y-145000D02*
D03*
X250000Y-457000D02*
D03*
X262000Y-225000D02*
D03*
Y-330000D02*
D03*
X82000Y-318000D02*
D03*
X478000Y-950000D02*
D03*
X402000Y-374921D02*
D03*
X100000Y-870000D02*
D03*
X410000Y-680000D02*
D03*
X372000D02*
D03*
X414000Y-684000D02*
D03*
X418000Y-692000D02*
D03*
X422000Y-696000D02*
D03*
X426000Y-700000D02*
D03*
X438000Y-330000D02*
D03*
X446000Y-640000D02*
D03*
Y-425000D02*
D03*
X438000Y-750000D02*
D03*
X450000Y-655000D02*
D03*
Y-415000D02*
D03*
X429000Y-900000D02*
D03*
Y-950000D02*
D03*
X425000Y-920000D02*
D03*
X421000Y-930000D02*
D03*
X417000Y-940000D02*
D03*
X413000Y-890000D02*
D03*
X409000Y-930000D02*
D03*
X405000Y-920000D02*
D03*
X401000Y-910000D02*
D03*
X380000Y-890000D02*
D03*
X473000Y-965000D02*
D03*
X469000Y-973000D02*
D03*
X465000Y-981000D02*
D03*
X461000Y-977000D02*
D03*
X457000Y-960000D02*
D03*
X346000Y-484000D02*
D03*
X342000Y-345000D02*
D03*
X434000Y-380000D02*
D03*
X430000Y-335000D02*
D03*
X426000Y-325000D02*
D03*
X422000Y-575000D02*
D03*
X418000Y-585000D02*
D03*
X376000Y-765000D02*
D03*
X353000Y-855000D02*
D03*
X409000Y-880000D02*
D03*
X397000Y-900000D02*
D03*
Y-885000D02*
D03*
X401000Y-875000D02*
D03*
X405000Y-870000D02*
D03*
X267000Y-815000D02*
D03*
Y-885000D02*
D03*
X576000Y-465000D02*
D03*
X572000Y-470000D02*
D03*
X350000Y-476000D02*
D03*
X409000Y-940000D02*
D03*
X284000Y-870000D02*
D03*
Y-520000D02*
D03*
X485000Y-815000D02*
D03*
X64000Y-85000D02*
D03*
X123000Y-130000D02*
D03*
X227000Y-96000D02*
D03*
X165000Y-85000D02*
D03*
X60000Y-75000D02*
D03*
X172000Y-445000D02*
D03*
X195000Y-510000D02*
D03*
X350000Y-255000D02*
D03*
X346000Y-315000D02*
D03*
X310000Y-535000D02*
D03*
X318000Y-640000D02*
D03*
X60000Y-111000D02*
D03*
X105000Y-865000D02*
D03*
X135000Y-100000D02*
D03*
X123000Y-645000D02*
D03*
X127000Y-670000D02*
D03*
X120000Y-472000D02*
D03*
Y-318000D02*
D03*
X131000Y-510000D02*
D03*
X135000Y-700000D02*
D03*
X399000Y-95000D02*
D03*
X391000Y-100000D02*
D03*
X395000Y-105000D02*
D03*
X380000Y-110000D02*
D03*
X438000Y-350000D02*
D03*
X376000Y-850000D02*
D03*
Y-980000D02*
D03*
X24000Y-375000D02*
D03*
X11000Y-355000D02*
D03*
X480000Y-590000D02*
D03*
X484000Y-580000D02*
D03*
X488000Y-570000D02*
D03*
X492000Y-560000D02*
D03*
X500000Y-395000D02*
D03*
Y-335000D02*
D03*
X481000Y-325000D02*
D03*
X165000Y-585000D02*
D03*
X160000Y-545000D02*
D03*
X166000Y-524827D02*
D03*
X162000Y-710000D02*
D03*
X158000Y-700000D02*
D03*
X354000Y-595000D02*
D03*
X429000Y-960000D02*
D03*
X433000Y-910000D02*
D03*
M02*
