M48
;Layer_Color=9474304
;FILE_FORMAT=2:5
INCH,TZ
;TYPE=PLATED
T1F00S00C0.01575
T2F00S00C0.03543
T3F00S00C0.03937
T4F00S00C0.04331
T5F00S00C0.12598
%
T01
X465000Y-981000
X461000Y-977000
X469000Y-973000
X473000Y-965000
X478000Y-950000
X457000Y-960000
X453000Y-925000
X425000Y-920000
X421000Y-930000
X409000
Y-940000
X417000
X429000Y-950000
Y-960000
X433000Y-910000
X429000Y-900000
X397000Y-900000
X401000Y-910000
X405000Y-920000
X376000Y-980000
X115000Y-980000
X110000Y-990000
X120000Y-970000
X129000Y-965000
X105000Y-960000
X100000Y-970000
X95000Y-940000
X24000Y-955000
X19000Y-960000
X11000Y-932000
X15000Y-927000
X19000Y-890000
X24000Y-870000
X11000Y-860000
X15000Y-850000
X19000Y-790000
X24094Y-770905
X11000Y-760000
X15000Y-750000
X95000Y-740000
X105000Y-760000
X100000Y-770000
X115000Y-780000
X110000Y-790000
X120000Y-750000
X95000Y-840000
X100000Y-870000
X105000Y-865000
X115000Y-880000
X124000Y-885000
X110000Y-890000
X134000Y-880000
X195000Y-845000
X199000Y-840000
X209000Y-830000
X223000Y-825000
X227000Y-835000
X250000Y-840000
X258000Y-830000
X267000Y-815000
X262000Y-860000
X267000Y-885000
X284000Y-870000
X207000Y-810000
X203000Y-800000
X215000Y-795000
X211000Y-790000
X219000Y-785000
X167000Y-815000
X345000Y-769000
X342000Y-745000
X346000Y-735000
X376000Y-765000
X389000Y-812000
X395000Y-807000
X389000Y-826000
X390000Y-845000
X384000
X376000Y-850000
X353000Y-855000
X380000Y-890000
X390000Y-885000
X397000
X401000Y-875000
X405000Y-870000
X409000Y-880000
X413000Y-890000
X429000Y-840000
X438000Y-750000
X485000Y-815000
X515000Y-850000
X520000Y-855000
Y-865000
X515000Y-870000
X450000Y-655000
X446000Y-640000
X476000Y-610000
Y-600000
X480000Y-590000
X484000Y-580000
X544000Y-585000
X418000
X396000Y-580000
X380000Y-600000
X354000Y-595000
X314000Y-585000
X310000Y-616000
X306000Y-620000
X318000Y-640000
X314000Y-645000
X322000Y-650000
X310000Y-655000
X306000Y-665000
X326000
X330000Y-675000
X334000Y-680000
X350000Y-685000
X372000Y-680000
X376000Y-675000
X410000Y-680000
X414000Y-684000
X418000Y-692000
X422000Y-696000
X426000Y-700000
X430000Y-708000
X434000Y-712000
X442500Y-688000
X414000Y-615000
X410000Y-605000
X380000Y-634000
X254000Y-630000
X266000Y-590000
X227000Y-600000
X199000Y-625000
X195000Y-690000
X223000Y-695000
X158000Y-700000
X162000Y-710000
X135000Y-700000
X165000Y-585000
X284000Y-710000
X110000Y-690000
X115000Y-680000
X127000Y-670000
X105000Y-665000
X100000Y-670000
X95000Y-640000
X123000Y-645000
X110000Y-590000
X115000Y-580000
X19000Y-590000
X15000Y-650000
X11000Y-660000
X24094Y-670000
X19000Y-690000
X24094Y-569905
X11000Y-560000
X15000Y-550000
X19000Y-490000
X24000Y-471000
X11000Y-460000
X15000Y-450000
X95000Y-440000
X105000Y-460000
X100000Y-470000
X120000Y-472000
X115000Y-480000
X110000Y-490000
X131000Y-510000
X119000Y-550000
X105000Y-560000
X100000Y-570000
X95000Y-540000
X160000Y-545000
X170000Y-530000
X166000Y-524827
X170150Y-520000
X157000Y-515000
X166000Y-494000
Y-472000
X170000Y-455000
X172000Y-445000
X203000Y-440000
X207000Y-435000
X215000Y-445000
X227000Y-455000
X235000Y-467000
X250000Y-457000
X254000Y-450000
X282000Y-464000
X286000Y-469000
X278000Y-430000
X284000Y-520000
X195000Y-510000
Y-550000
X314000Y-545000
X310000Y-535000
X330000Y-530000
X346000Y-535000
X350000Y-555000
X326000Y-550000
X322000Y-568000
X318000Y-575000
X334000Y-510000
X342000Y-515000
X346000Y-484000
X354000Y-480000
X350000Y-476000
X306000Y-479000
X290000Y-474000
X372000Y-450000
X396000Y-495000
X388000Y-520000
X376000Y-540000
X392000Y-560000
X422000Y-575000
X442000Y-472000
X446000Y-425000
X552000Y-480000
X556000Y-476000
X564000Y-468000
X572000Y-470000
X576000Y-465000
X564000Y-484000
X548000Y-575000
X488000Y-570000
X492000Y-560000
X496000Y-550000
X500000Y-395000
X504000Y-385000
X536000Y-395000
X540000Y-392000
X528000Y-405000
X532000Y-415000
X560000Y-384000
X500000Y-335000
X481000Y-325000
X487500Y-290000
X450000Y-415000
X410000Y-410000
X414000Y-400000
X418000Y-390000
X414000Y-385000
X410000Y-375000
X402000Y-374921
Y-395000
X388000Y-405000
X376000Y-395000
X392000Y-355000
X384000Y-325000
X388000Y-300000
X396000Y-290000
X392000Y-280000
X376000Y-270000
X322000Y-280000
X326000Y-290000
X330000Y-300000
X334000Y-310000
X346000Y-315000
X342000Y-320000
X318000Y-320000
X314000Y-335000
X310000Y-345000
X318000Y-355000
X338000
X342000Y-345000
X338000Y-375000
Y-415000
X422000Y-370000
X426000Y-360000
X430000Y-350000
X438000
X434000Y-340000
X430000Y-335000
X438000Y-330000
X426000Y-325000
X434000Y-380000
X286000
X274000Y-410000
X270000Y-420000
X231000Y-415000
X215000Y-405000
X219000Y-400000
X203000Y-420000
X199000Y-370000
X195000Y-330000
X191000Y-293000
X195000Y-281000
X219000Y-305000
X270000Y-293000
X278000Y-310000
X262000Y-330000
Y-345000
X158000Y-360000
X150000Y-375000
X138000Y-281000
X115000Y-280000
X110000Y-290000
X100000Y-270000
X82000Y-318000
X95000Y-340000
X105000Y-360000
X100000Y-370000
X115000Y-380000
X110000Y-390000
X64000Y-375000
X24000
X19000Y-390000
X11000Y-355000
X15000Y-350000
X19000Y-290000
X24000Y-270000
X120000Y-318000
X105000Y-260000
X11000
X15000Y-250000
X60000Y-111000
X113000Y-135000
X123000Y-130000
X130000
X126000Y-150000
X121000Y-165000
X194000Y-170000
Y-150000
X199000
X211000Y-140000
X199000Y-125000
X245000Y-130000
X249000Y-160000
X231000
Y-170000
X254000Y-175000
X258000Y-190000
X262000Y-225000
X245000Y-230000
X254000Y-240000
X270000Y-260000
X215000Y-215000
X203000Y-220000
X195000Y-225000
X191000Y-202000
X160000Y-240000
X169000Y-250000
X270000Y-145000
X282000Y-130000
X286000Y-120000
X274000Y-114000
X380000Y-110000
X395000Y-155000
X407000Y-165000
X399000Y-185000
X403000Y-195000
X384000Y-175000
Y-235000
X376000Y-260000
X350000Y-255000
X342000Y-240000
X346000Y-235000
X487500Y-250000
X395000Y-105000
X391000Y-100000
X399000Y-95000
X403000Y-90000
X407000Y-80000
X423000Y-75000
X415000Y-65000
X411000Y-60000
X415000Y-50000
X419000Y-40000
X427000Y-35000
X423000Y-30000
X375850Y-24150
X372000Y-85000
X266000Y-100000
X227000Y-96000
X199000Y-100000
X207000Y-80000
X219000Y-60000
X223000Y-30000
X231000Y-19000
X199000Y-15000
X170000Y-16000
X165000Y-20000
X139000Y-35000
X143000Y-45000
X134000Y-80000
X135000Y-100000
X165000Y-85000
X278000Y-40000
X123000Y-75000
X117000Y-95000
X64000Y-85000
X60000Y-75000
T02
X500000Y-980000
Y-970000
Y-960000
Y-950000
Y-940000
Y-930000
Y-920000
Y-910000
Y-900000
X577000Y-900000
X587000
Y-910000
X577000
Y-920000
X587000
Y-930000
Y-940000
Y-950000
Y-960000
X577000
Y-950000
Y-940000
Y-930000
X440000Y-930000
Y-920000
Y-910000
Y-900000
Y-940000
Y-950000
Y-960000
Y-970000
Y-980000
X409000Y-970000
Y-1010000
X210000Y-977000
X200000
X213000Y-950000
X209000Y-938000
X223000Y-938000
Y-898000
X209000Y-898000
X195000Y-925000
X155000
Y-900000
X165000
X173000Y-950000
X80000
Y-940000
Y-930000
X70000Y-915000
X80000Y-900000
X50000
Y-930000
Y-940000
Y-950000
Y-960000
Y-970000
Y-980000
Y-990000
Y-1000000
X80000
Y-990000
Y-980000
Y-970000
Y-960000
X30000Y-915000
X50000Y-890000
Y-880000
Y-870000
Y-860000
Y-850000
Y-840000
Y-830000
X40000Y-815000
X50000Y-800000
Y-790000
Y-780000
Y-770000
Y-760000
Y-750000
Y-740000
X80000
Y-750000
Y-760000
Y-770000
Y-780000
Y-790000
Y-800000
X80000Y-815000
X80000Y-830000
Y-840000
Y-850000
Y-860000
Y-870000
Y-880000
Y-890000
X150000Y-840000
Y-830000
Y-820000
Y-810000
Y-800000
Y-790000
Y-780000
Y-770000
X148000Y-750000
X188000
X180000Y-770000
Y-780000
Y-790000
Y-800000
Y-810000
Y-820000
Y-830000
Y-840000
X215000Y-825000
Y-865000
X275000Y-790000
Y-750000
X300000Y-750000
Y-740000
X360000
Y-750000
X404000Y-757000
Y-743000
Y-773000
X404000Y-788000
X404000Y-800000
X404000Y-819000
X444000
X444000Y-800000
X444000Y-788000
X444000Y-773000
Y-757000
Y-743000
X440000Y-870000
Y-880000
Y-890000
X500000
Y-880000
Y-870000
X520000Y-830000
Y-820000
Y-810000
Y-800000
Y-790000
Y-780000
Y-770000
Y-760000
Y-750000
Y-740000
X460000
Y-750000
Y-760000
Y-770000
Y-780000
Y-790000
Y-800000
Y-810000
Y-820000
Y-830000
X577000Y-830000
X587000
Y-820000
Y-810000
Y-800000
X577000
Y-810000
Y-820000
Y-840000
X587000
Y-850000
X577000
Y-860000
X587000
Y-870000
X577000
Y-880000
X587000
Y-890000
X577000
X582638Y-708189
Y-694409
Y-680630
Y-666850
Y-653071
Y-639291
Y-625512
Y-611732
Y-597953
Y-584173
X594449Y-591063
Y-604842
Y-618622
Y-632402
Y-646181
Y-659961
Y-673740
Y-687520
Y-701299
Y-715079
X520000Y-720000
Y-730000
X460000
Y-720000
X444000Y-730000
X404000
X360000Y-730000
Y-720000
Y-710000
Y-700000
Y-690000
Y-680000
Y-670000
Y-660000
Y-650000
Y-640000
Y-600000
Y-590000
Y-580000
X300000
Y-590000
Y-600000
Y-640000
Y-650000
Y-660000
Y-670000
Y-680000
Y-690000
Y-700000
Y-710000
Y-720000
Y-730000
X367000Y-705000
X397000Y-646000
Y-606000
X180000Y-610000
Y-620000
Y-630000
Y-640000
Y-670000
Y-680000
Y-690000
Y-700000
Y-710000
Y-720000
Y-730000
X150000
Y-720000
Y-710000
Y-700000
Y-690000
Y-680000
Y-670000
Y-640000
Y-630000
Y-620000
Y-610000
Y-600000
Y-590000
Y-580000
X180000
Y-590000
Y-600000
X80000
Y-590000
Y-580000
X50000
Y-590000
Y-600000
X40000Y-615000
X50000Y-630000
Y-640000
Y-650000
Y-660000
Y-670000
Y-680000
Y-690000
Y-700000
Y-730000
X80000
X70000Y-715000
X80000Y-700000
Y-690000
Y-680000
Y-670000
Y-660000
Y-650000
Y-640000
Y-630000
X80000Y-615000
X30000Y-715000
X50000Y-570000
Y-560000
Y-550000
Y-540000
Y-530000
X80000
Y-540000
Y-550000
Y-560000
Y-570000
X70000Y-515000
X80000Y-500000
Y-490000
Y-480000
Y-470000
Y-460000
Y-450000
Y-440000
Y-430000
X50000
Y-440000
Y-450000
Y-460000
Y-470000
Y-480000
Y-490000
Y-500000
X30000Y-515000
X150000Y-510000
Y-500000
Y-490000
Y-460000
Y-450000
Y-440000
Y-430000
X180000
Y-440000
Y-450000
Y-460000
X187000Y-477000
X180000Y-490000
Y-500000
Y-510000
Y-520000
Y-530000
Y-540000
Y-550000
X185000Y-565000
X145000
X150000Y-550000
Y-540000
Y-530000
Y-520000
X245000Y-515000
Y-505000
Y-495000
Y-485000
X227000Y-477000
X235000Y-457000
X275000
X275000Y-485000
Y-495000
Y-505000
Y-515000
Y-525000
Y-535000
Y-545000
Y-555000
X245000
Y-545000
Y-535000
Y-525000
X300000Y-530000
Y-540000
Y-550000
Y-560000
Y-570000
Y-520000
Y-510000
Y-500000
Y-490000
X360000
Y-500000
Y-510000
Y-520000
Y-530000
Y-540000
Y-550000
Y-560000
Y-570000
X582638Y-570394
Y-556614
Y-542835
Y-529055
Y-515276
Y-501496
Y-487716
Y-473937
Y-460157
Y-446378
Y-432598
X594449Y-425709
Y-439488
Y-453268
Y-467047
Y-480827
Y-494606
Y-508386
Y-522165
Y-535945
Y-549724
Y-563504
Y-577283
Y-411929
Y-398150
Y-384370
Y-370591
Y-356811
Y-343031
Y-329252
Y-315472
Y-301693
X582638Y-308583
Y-322362
Y-336142
Y-349921
Y-363701
Y-377480
Y-391260
Y-405039
Y-418819
X536000Y-337000
Y-297000
X180000Y-300000
Y-310000
Y-320000
Y-330000
Y-340000
Y-350000
Y-360000
Y-390000
Y-400000
Y-410000
Y-420000
X150000
Y-410000
Y-400000
Y-390000
Y-360000
Y-350000
Y-340000
Y-330000
Y-320000
Y-310000
Y-300000
Y-270000
X180000
X123000Y-298000
X127000Y-310000
X87000
X80000Y-300000
Y-290000
Y-280000
Y-270000
X50000
Y-280000
Y-290000
Y-300000
Y-330000
Y-340000
Y-350000
Y-360000
Y-370000
Y-380000
Y-390000
Y-400000
X80000
Y-390000
Y-380000
Y-370000
Y-360000
Y-350000
Y-340000
Y-330000
X70000Y-315000
X30000
X40000Y-365000
X50000Y-260000
Y-250000
Y-240000
Y-230000
X40000Y-215000
X30000Y-207500
X50000Y-200000
Y-190000
Y-180000
Y-170000
Y-160000
Y-150000
Y-140000
Y-130000
X32500Y-130000
X20000Y-120000
Y-160000
X30000Y-167500
X19000Y-190000
Y-230000
X80000
Y-240000
Y-250000
Y-260000
X98000Y-240000
X99000Y-207000
X80000Y-200000
Y-190000
Y-180000
Y-170000
Y-160000
Y-150000
Y-140000
Y-130000
X102000Y-115000
X99000Y-167000
X80000Y-215000
X127000Y-210000
X123000Y-258000
X150000Y-260000
Y-250000
Y-240000
Y-230000
Y-220000
Y-210000
Y-180000
Y-170000
Y-160000
Y-150000
Y-140000
Y-130000
Y-120000
X180000
Y-130000
Y-140000
Y-150000
Y-160000
Y-170000
Y-180000
Y-210000
Y-220000
Y-230000
Y-240000
Y-250000
Y-260000
X237000Y-265000
Y-225000
X138000Y-240000
X440000Y-235000
Y-220000
X443116Y-191136
X438504Y-180000
X443116Y-168864
X440000Y-140000
Y-120000
X480000
Y-140000
Y-159000
Y-180000
X470000
X465387Y-168864
X454252Y-164252
X460000Y-140000
X465387Y-191136
X454252Y-195748
X480000Y-199000
Y-220000
Y-235000
X460000
X501000Y-220000
X521000
X520000Y-235000
Y-199000
Y-180000
Y-159000
Y-140000
Y-120000
X500000
X550000Y-130000
X560000
X570000
X580000
Y-140000
Y-150000
Y-160000
Y-170000
Y-180000
Y-190000
Y-200000
Y-210000
Y-220000
X590000
X600000
Y-210000
X590000
Y-200000
X600000
Y-190000
X590000
Y-180000
X600000
Y-170000
X590000
Y-160000
Y-150000
Y-140000
Y-130000
X600000
Y-140000
Y-150000
Y-160000
X570000
Y-170000
Y-180000
Y-190000
Y-200000
Y-210000
Y-220000
X560000
Y-210000
Y-200000
Y-190000
Y-180000
Y-170000
Y-160000
Y-150000
X570000
Y-140000
X560000
X550000
Y-150000
Y-160000
Y-170000
Y-180000
Y-190000
Y-200000
Y-210000
Y-220000
X560000Y-230000
X570000
X580000
X590000
X600000
Y-240000
X590000
X580000
X570000
X590000Y-120000
X600000
Y-110000
X590000
X550000Y-110000
X610000Y-110000
Y-120000
Y-130000
X620000
Y-140000
Y-150000
Y-160000
Y-170000
Y-180000
Y-190000
Y-200000
Y-210000
Y-220000
X610000
Y-210000
Y-200000
Y-190000
Y-180000
Y-170000
Y-160000
Y-150000
Y-140000
X620000Y-120000
Y-110000
Y-230000
X610000
Y-240000
X620000
Y-100000
X610000
Y-90000
X620000
Y-80000
X610000
Y-70000
X620000
Y-60000
X610000
Y-50000
Y-40000
X620000
Y-50000
X600000
Y-60000
Y-70000
Y-80000
Y-90000
Y-100000
X590000
Y-90000
Y-80000
Y-70000
Y-60000
Y-50000
Y-40000
X600000
X550000Y-80000
X520000
X500000
X480000
Y-100000
X520000
X480000Y-23000
Y-12000
X440000
Y-23000
Y-80000
X180000
Y-90000
Y-70000
Y-60000
Y-50000
Y-40000
Y-30000
X150000
Y-40000
Y-50000
Y-60000
Y-70000
Y-80000
Y-90000
X130000Y-60000
X90000
X80000
Y-50000
Y-40000
Y-30000
X50000
Y-40000
Y-50000
Y-60000
Y-70000
Y-80000
Y-90000
Y-100000
X32500Y-90000
X20000Y-100000
Y-60000
X80000Y-70000
Y-80000
Y-90000
Y-100000
X102000Y-75000
T03
X300000Y-980000
Y-970000
Y-960000
Y-950000
Y-940000
Y-930000
Y-920000
Y-910000
Y-900000
X360000
Y-910000
Y-920000
Y-930000
Y-940000
Y-950000
Y-960000
Y-970000
Y-980000
X24000Y-979000
X30000Y-900000
Y-800000
X88000Y-855000
X300000Y-850000
Y-840000
Y-830000
Y-820000
Y-810000
Y-800000
Y-790000
X291000Y-781000
X360000Y-790000
Y-800000
Y-810000
Y-820000
Y-830000
Y-840000
Y-850000
Y-860000
Y-870000
Y-880000
Y-890000
X369000Y-875000
X300000Y-870000
Y-860000
Y-880000
Y-890000
X494000Y-825000
X590000Y-765000
X610000Y-838000
X510000Y-695000
X502000
X494000
X520000Y-680000
Y-670000
Y-660000
Y-650000
Y-640000
Y-630000
Y-620000
Y-610000
Y-600000
Y-590000
Y-580000
X460000
Y-590000
Y-600000
Y-610000
Y-620000
Y-630000
Y-640000
Y-650000
Y-660000
Y-670000
Y-680000
X189000Y-658000
X151000
X88000Y-655000
Y-607000
X30000Y-600000
Y-700000
Y-500000
X300000Y-450000
Y-440000
Y-430000
X360000
Y-440000
Y-450000
X367000Y-457000
X460000Y-450000
Y-440000
Y-430000
Y-490000
Y-500000
Y-510000
Y-520000
Y-530000
Y-540000
Y-550000
Y-560000
Y-570000
X520000
Y-560000
Y-550000
Y-540000
Y-530000
Y-520000
Y-510000
Y-500000
Y-490000
Y-450000
Y-440000
Y-430000
Y-420000
Y-410000
Y-400000
Y-390000
Y-380000
Y-370000
Y-360000
Y-350000
Y-340000
Y-330000
Y-320000
Y-310000
Y-300000
Y-290000
Y-280000
Y-270000
X460000
Y-280000
Y-290000
Y-300000
Y-310000
Y-320000
Y-330000
Y-340000
Y-350000
Y-360000
Y-370000
Y-380000
Y-390000
Y-400000
Y-410000
Y-420000
X449000Y-360000
X483000Y-310000
X360000Y-310000
Y-320000
Y-330000
Y-340000
Y-350000
Y-360000
Y-370000
Y-380000
Y-390000
Y-400000
Y-410000
Y-420000
X300000
Y-410000
Y-400000
Y-390000
Y-380000
Y-370000
Y-360000
Y-350000
Y-340000
Y-330000
Y-320000
Y-310000
Y-300000
Y-290000
Y-280000
Y-270000
X360000
Y-280000
Y-290000
Y-300000
X141000Y-325000
Y-345000
X30000Y-300000
Y-400000
X30000Y-410000
X70000Y-119000
X141000Y-225000
X300000Y-220000
Y-210000
Y-200000
Y-190000
Y-180000
Y-170000
Y-160000
Y-150000
Y-140000
Y-130000
Y-120000
Y-110000
X360000
Y-120000
Y-130000
Y-140000
Y-150000
Y-160000
Y-170000
Y-180000
Y-190000
Y-200000
Y-210000
Y-220000
X365000Y-246000
X360000Y-260000
X300000
X460000
X520000
X530000Y-244000
X507000
X538000Y-140000
Y-130000
X360000Y-100000
Y-90000
Y-80000
Y-70000
Y-60000
Y-50000
Y-40000
Y-30000
X300000
Y-40000
Y-50000
Y-60000
Y-70000
Y-80000
Y-90000
Y-100000
T04
X520000Y-987500
X530000
X540000
X386000Y-987000
X172780Y-993858
Y-976142
X145220
Y-993858
X150000Y-864000
X170000
X449842Y-100000
X459685
X451551Y-35000
X521000
X520000Y-59000
X540000Y-48000
X550000
X560000
X440000Y-59000
Y-100000
T05
X614173Y-1007874
X15748
X606260Y-743779
Y-271339
X614173Y-15748
X15748
M30
